<svg width="1010" height="1010" viewBox="0 0 1010 1010" fill="none" xmlns="http://www.w3.org/2000/svg">
<g filter="url(#filter0_d_2_40)">
<circle cx="505" cy="500" r="500" fill="#43AA8B"/>
</g>
<path d="M329.512 543.748C305.292 543.748 285.675 563.365 285.675 587.585C285.675 611.805 305.292 631.423 329.512 631.423C353.732 631.423 373.35 611.805 373.35 587.585C373.35 563.365 353.732 543.748 329.512 543.748ZM241.837 456.073C217.617 456.073 198 475.69 198 499.91C198 524.13 217.617 543.748 241.837 543.748C266.058 543.748 285.675 524.13 285.675 499.91C285.675 475.69 266.058 456.073 241.837 456.073ZM241.837 631.423C217.617 631.423 198 651.04 198 675.26C198 699.48 217.617 719.097 241.837 719.097C266.058 719.097 285.675 699.48 285.675 675.26C285.675 651.04 266.058 631.423 241.837 631.423ZM504.862 456.073C529.082 456.073 548.699 436.456 548.699 412.236C548.699 388.015 529.082 368.398 504.862 368.398C480.642 368.398 461.024 388.015 461.024 412.236C461.024 436.456 480.642 456.073 504.862 456.073ZM417.187 631.423C392.967 631.423 373.35 651.04 373.35 675.26C373.35 699.48 392.967 719.097 417.187 719.097C441.407 719.097 461.024 699.48 461.024 675.26C461.024 651.04 441.407 631.423 417.187 631.423ZM504.862 543.748C480.642 543.748 461.024 563.365 461.024 587.585C461.024 611.805 480.642 631.423 504.862 631.423C529.082 631.423 548.699 611.805 548.699 587.585C548.699 563.365 529.082 543.748 504.862 543.748ZM417.187 456.073C392.967 456.073 373.35 475.69 373.35 499.91C373.35 524.13 392.967 543.748 417.187 543.748C441.407 543.748 461.024 524.13 461.024 499.91C461.024 475.69 441.407 456.073 417.187 456.073ZM329.512 368.398C305.292 368.398 285.675 388.015 285.675 412.236C285.675 436.456 305.292 456.073 329.512 456.073C353.732 456.073 373.35 436.456 373.35 412.236C373.35 388.015 353.732 368.398 329.512 368.398Z" fill="#EFEFF0" fill-opacity="0.05"/>
<path d="M592.813 456.35C568.593 456.35 548.976 475.967 548.976 500.187C548.976 524.407 568.593 544.024 592.813 544.024C617.033 544.024 636.65 524.407 636.65 500.187C636.65 475.967 617.033 456.35 592.813 456.35ZM505.138 368.675C480.918 368.675 461.301 388.292 461.301 412.512C461.301 436.732 480.918 456.35 505.138 456.35C529.358 456.35 548.976 436.732 548.976 412.512C548.976 388.292 529.358 368.675 505.138 368.675ZM505.138 544.024C480.918 544.024 461.301 563.642 461.301 587.862C461.301 612.082 480.918 631.699 505.138 631.699C529.358 631.699 548.976 612.082 548.976 587.862C548.976 563.642 529.358 544.024 505.138 544.024ZM768.163 368.675C792.383 368.675 812 349.058 812 324.837C812 300.617 792.383 281 768.163 281C743.942 281 724.325 300.617 724.325 324.837C724.325 349.058 743.942 368.675 768.163 368.675ZM680.488 544.024C656.268 544.024 636.65 563.642 636.65 587.862C636.65 612.082 656.268 631.699 680.488 631.699C704.708 631.699 724.325 612.082 724.325 587.862C724.325 563.642 704.708 544.024 680.488 544.024ZM768.163 456.35C743.942 456.35 724.325 475.967 724.325 500.187C724.325 524.407 743.942 544.024 768.163 544.024C792.383 544.024 812 524.407 812 500.187C812 475.967 792.383 456.35 768.163 456.35ZM680.488 368.675C656.268 368.675 636.65 388.292 636.65 412.512C636.65 436.732 656.268 456.35 680.488 456.35C704.708 456.35 724.325 436.732 724.325 412.512C724.325 388.292 704.708 368.675 680.488 368.675ZM592.813 281C568.593 281 548.976 300.617 548.976 324.837C548.976 349.058 568.593 368.675 592.813 368.675C617.033 368.675 636.65 349.058 636.65 324.837C636.65 300.617 617.033 281 592.813 281Z" fill="#EFEFF0" fill-opacity="0.05"/>
<defs>
<filter id="filter0_d_2_40" x="0" y="0" width="1010" height="1010" filterUnits="userSpaceOnUse" color-interpolation-filters="sRGB">
<feFlood flood-opacity="0" result="BackgroundImageFix"/>
<feColorMatrix in="SourceAlpha" type="matrix" values="0 0 0 0 0 0 0 0 0 0 0 0 0 0 0 0 0 0 127 0" result="hardAlpha"/>
<feOffset dy="5"/>
<feGaussianBlur stdDeviation="2.5"/>
<feComposite in2="hardAlpha" operator="out"/>
<feColorMatrix type="matrix" values="0 0 0 0 0.262745 0 0 0 0 0.666667 0 0 0 0 0.545098 0 0 0 0.05 0"/>
<feBlend mode="normal" in2="BackgroundImageFix" result="effect1_dropShadow_2_40"/>
<feBlend mode="normal" in="SourceGraphic" in2="effect1_dropShadow_2_40" result="shape"/>
</filter>
</defs>
</svg>
